<?xml version="1.0" standalone="no"?><!DOCTYPE svg PUBLIC "-//W3C//DTD SVG 1.1//EN" "http://www.w3.org/Graphics/SVG/1.1/DTD/svg11.dtd"><svg t="1676036547677" class="icon" viewBox="0 0 1024 1024" version="1.1" xmlns="http://www.w3.org/2000/svg" p-id="18809" width="32" height="32" xmlns:xlink="http://www.w3.org/1999/xlink"><path d="M2 511.9c-0.1 281.7 228.2 510.1 509.8 510.2 281.7 0.1 510.1-228.2 510.2-509.8v-0.4c0-281.7-228.3-510-510-510S2 230.3 2 511.9z" fill="#FEAA42" p-id="18810"></path><path d="M817.6 452c-12.3 0-22.4-10.1-22.4-22.4v-40.3c0-53.8-30.2-98.6-67.3-98.6H295.1c-37 0-67.3 44.8-67.3 98.6v40.4c0 12.3-10.1 22.4-22.4 22.4-12.3 0-22.4-10.1-22.4-22.4v-40.4c0-79.6 50.5-143.6 112.1-143.6H729c61.7 0 112.1 65 112.1 143.6v40.4c-1.1 12.2-11.2 22.3-23.5 22.3z m-89.7 326.3H295.1c-61.7 0-112.1-50.5-112.1-112.1V599c0-12.3 10.1-22.4 22.4-22.4 12.3 0 22.4 10.1 22.4 22.4v67.3c0 37 30.2 67.3 67.3 67.3H729c37 0 67.3-30.2 67.3-67.3V599c0-12.3 10.1-22.4 22.4-22.4 12.3 0 22.4 10.1 22.4 22.4v67.3c-1.1 61.5-51.6 112-113.2 112z" fill="#FFFFFF" p-id="18811"></path><path d="M209.8 621.3v-44.8c34.8 0 62.8-28.1 62.8-62.8 0-34.8-28.1-62.8-62.8-62.8v-44.8c59.4 0 107.7 48.2 107.7 107.7 0 59.2-48.3 107.5-107.7 107.5zM815.3 621.3c-59.4 0-107.7-48.2-107.7-107.7 0-59.4 48.2-107.7 107.7-107.7v44.8c-34.8 0-62.8 28.1-62.8 62.8 0 34.8 28.1 62.8 62.8 62.8v45zM589.1 493H434.9c-9 0-16.3-7.3-16.3-16.3v-1.6c0-9 7.3-16.3 16.3-16.3h154.3c9 0 16.3 7.3 16.3 16.3v1.6c0 9-7.4 16.3-16.4 16.3z" fill="#FFFFFF" p-id="18812"></path><path d="M528.7 466.9v154.3c0 9-7.3 16.3-16.3 16.3h-1.6c-9 0-16.3-7.3-16.3-16.3V466.9c0-9 7.3-16.3 16.3-16.3h1.6c9 0 16.3 7.3 16.3 16.3z" fill="#FFFFFF" p-id="18813"></path><path d="M483.1 456.3l-45.7-45.7c-6.5-6.5-6.5-16.3 0-22.8l0.8-0.8c6.5-6.5 16.3-6.5 22.8 0l45.7 45.7c6.5 6.5 6.5 16.3 0 22.8l-0.8 0.8c-6.5 6.6-16.3 6.6-22.8 0z" fill="#FFFFFF" p-id="18814"></path><path d="M583.4 413.8l-45.7 45.7c-6.5 6.5-16.3 6.5-22.8 0l-0.8-1.6c-6.5-6.5-6.5-16.3 0-22.8l45.7-45.7c6.5-6.5 16.3-6.5 22.8 0l0.8 0.8c6.6 6.6 6.6 17.1 0 23.6z m5.7 147H434.9c-9 0-16.3-7.3-16.3-16.3v-1.6c0-9 7.3-16.3 16.3-16.3h154.3c9 0 16.3 7.3 16.3 16.3v1.6c0 8.9-7.4 16.3-16.4 16.3z" fill="#FFFFFF" p-id="18815"></path></svg>